<mxfile host="app.diagrams.net" agent="Mozilla/5.0 (Windows NT 10.0; Win64; x64) AppleWebKit/537.36 (KHTML, like Gecko) Chrome/127.0.0.0 Safari/537.36 Edg/127.0.0.0" version="24.7.6">
  <diagram name="第 1 页" id="0HllcY8JEj-FbyPdQUUL">
    <mxGraphModel dx="1773" dy="1961" grid="1" gridSize="10" guides="1" tooltips="1" connect="1" arrows="1" fold="1" page="0" pageScale="1" pageWidth="1654" pageHeight="2336" background="none" math="0" shadow="0">
      <root>
        <mxCell id="0" />
        <mxCell id="1" parent="0" />
        <mxCell id="j0x3B-yfw_-0u4evOHka-82" value="" style="rounded=1;whiteSpace=wrap;html=1;fillColor=none;strokeColor=#3700CC;fontColor=#000000;strokeWidth=2;dashed=1;sketch=1;curveFitting=1;jiggle=2;" parent="1" vertex="1">
          <mxGeometry x="2050" y="780" width="510" height="700" as="geometry" />
        </mxCell>
        <mxCell id="j0x3B-yfw_-0u4evOHka-54" value="" style="rounded=1;whiteSpace=wrap;html=1;fillColor=none;strokeColor=#C73500;fontColor=#FFFFFF;strokeWidth=2;dashed=1;sketch=1;curveFitting=1;jiggle=2;" parent="1" vertex="1">
          <mxGeometry x="2050" y="-510" width="600" height="1110" as="geometry" />
        </mxCell>
        <mxCell id="fQ7oRYGEK4mnszn2L0VB-53" value="" style="rounded=1;whiteSpace=wrap;html=1;fillColor=none;fontColor=#000000;strokeColor=#2D7600;dashed=1;sketch=1;curveFitting=1;jiggle=2;" parent="1" vertex="1">
          <mxGeometry x="620" y="400" width="120" height="260" as="geometry" />
        </mxCell>
        <mxCell id="fQ7oRYGEK4mnszn2L0VB-41" value="" style="rounded=1;whiteSpace=wrap;html=1;fillColor=none;strokeWidth=2;dashed=1;glass=1;fontColor=#000000;strokeColor=#B20000;sketch=1;curveFitting=1;jiggle=2;" parent="1" vertex="1">
          <mxGeometry x="100" y="750" width="230" height="280" as="geometry" />
        </mxCell>
        <mxCell id="fQ7oRYGEK4mnszn2L0VB-42" value="" style="rounded=1;whiteSpace=wrap;html=1;fillColor=none;strokeWidth=2;dashed=1;glass=1;fontColor=#000000;strokeColor=#B20000;sketch=1;curveFitting=1;jiggle=2;" parent="1" vertex="1">
          <mxGeometry x="500" y="750" width="240" height="280" as="geometry" />
        </mxCell>
        <mxCell id="fQ7oRYGEK4mnszn2L0VB-18" value="" style="rounded=1;whiteSpace=wrap;html=1;fillColor=none;strokeWidth=2;dashed=1;glass=1;fontColor=#000000;strokeColor=#B20000;sketch=1;curveFitting=1;jiggle=2;" parent="1" vertex="1">
          <mxGeometry x="100" y="120" width="660" height="140" as="geometry" />
        </mxCell>
        <mxCell id="9S3NViKtjIDBjA28h9UV-13" style="edgeStyle=orthogonalEdgeStyle;rounded=0;orthogonalLoop=1;jettySize=auto;html=1;" edge="1" parent="1" source="fQ7oRYGEK4mnszn2L0VB-40">
          <mxGeometry relative="1" as="geometry">
            <mxPoint x="420" y="720" as="targetPoint" />
          </mxGeometry>
        </mxCell>
        <mxCell id="9S3NViKtjIDBjA28h9UV-14" style="edgeStyle=orthogonalEdgeStyle;rounded=0;orthogonalLoop=1;jettySize=auto;html=1;exitX=0.75;exitY=1;exitDx=0;exitDy=0;" edge="1" parent="1" source="fQ7oRYGEK4mnszn2L0VB-40">
          <mxGeometry relative="1" as="geometry">
            <mxPoint x="485" y="710" as="targetPoint" />
          </mxGeometry>
        </mxCell>
        <mxCell id="fQ7oRYGEK4mnszn2L0VB-40" value="" style="rounded=1;whiteSpace=wrap;html=1;fillColor=none;strokeWidth=2;dashed=1;glass=1;fontColor=#000000;strokeColor=#B20000;sketch=1;curveFitting=1;jiggle=2;" parent="1" vertex="1">
          <mxGeometry x="290" y="270" width="260" height="460" as="geometry" />
        </mxCell>
        <mxCell id="fQ7oRYGEK4mnszn2L0VB-6" style="edgeStyle=orthogonalEdgeStyle;rounded=1;orthogonalLoop=1;jettySize=auto;html=1;exitX=1;exitY=0.5;exitDx=0;exitDy=0;entryX=0;entryY=0.5;entryDx=0;entryDy=0;fontColor=#000000;sketch=1;curveFitting=1;jiggle=2;" parent="1" source="fQ7oRYGEK4mnszn2L0VB-1" target="fQ7oRYGEK4mnszn2L0VB-4" edge="1">
          <mxGeometry relative="1" as="geometry" />
        </mxCell>
        <mxCell id="fQ7oRYGEK4mnszn2L0VB-1" value="&lt;font style=&quot;font-size: 14px;&quot;&gt;tokenizer&lt;/font&gt;" style="rounded=1;whiteSpace=wrap;html=1;fillColor=#60a917;fontColor=#000000;strokeColor=#2D7600;sketch=1;curveFitting=1;jiggle=2;fontSize=14;" parent="1" vertex="1">
          <mxGeometry x="360" y="160" width="120" height="50" as="geometry" />
        </mxCell>
        <mxCell id="fQ7oRYGEK4mnszn2L0VB-5" style="edgeStyle=orthogonalEdgeStyle;rounded=1;orthogonalLoop=1;jettySize=auto;html=1;exitX=1;exitY=0.5;exitDx=0;exitDy=0;fontColor=#000000;sketch=1;curveFitting=1;jiggle=2;" parent="1" source="fQ7oRYGEK4mnszn2L0VB-3" target="fQ7oRYGEK4mnszn2L0VB-1" edge="1">
          <mxGeometry relative="1" as="geometry" />
        </mxCell>
        <mxCell id="fQ7oRYGEK4mnszn2L0VB-3" value="&lt;font style=&quot;font-size: 15px;&quot;&gt;Text&lt;/font&gt;" style="rounded=1;whiteSpace=wrap;html=1;fillColor=#e3c800;fontColor=#000000;strokeColor=#B09500;sketch=1;curveFitting=1;jiggle=2;" parent="1" vertex="1">
          <mxGeometry x="160" y="160" width="120" height="50" as="geometry" />
        </mxCell>
        <mxCell id="fQ7oRYGEK4mnszn2L0VB-9" style="edgeStyle=orthogonalEdgeStyle;rounded=1;orthogonalLoop=1;jettySize=auto;html=1;exitX=1;exitY=0.5;exitDx=0;exitDy=0;entryX=1;entryY=0.5;entryDx=0;entryDy=0;fontColor=#000000;sketch=1;curveFitting=1;jiggle=2;" parent="1" source="fQ7oRYGEK4mnszn2L0VB-4" target="fQ7oRYGEK4mnszn2L0VB-8" edge="1">
          <mxGeometry relative="1" as="geometry" />
        </mxCell>
        <mxCell id="fQ7oRYGEK4mnszn2L0VB-4" value="&lt;font style=&quot;font-size: 14px;&quot;&gt;input_ids&lt;/font&gt;" style="rounded=1;whiteSpace=wrap;html=1;fillColor=#e3c800;fontColor=#000000;strokeColor=#B09500;sketch=1;curveFitting=1;jiggle=2;" parent="1" vertex="1">
          <mxGeometry x="560" y="150" width="150" height="70" as="geometry" />
        </mxCell>
        <mxCell id="fQ7oRYGEK4mnszn2L0VB-22" style="edgeStyle=orthogonalEdgeStyle;rounded=1;orthogonalLoop=1;jettySize=auto;html=1;exitX=0.5;exitY=1;exitDx=0;exitDy=0;entryX=0.5;entryY=0;entryDx=0;entryDy=0;fontColor=#000000;sketch=1;curveFitting=1;jiggle=2;" parent="1" source="fQ7oRYGEK4mnszn2L0VB-8" target="fQ7oRYGEK4mnszn2L0VB-10" edge="1">
          <mxGeometry relative="1" as="geometry" />
        </mxCell>
        <mxCell id="9S3NViKtjIDBjA28h9UV-1" style="edgeStyle=orthogonalEdgeStyle;rounded=0;orthogonalLoop=1;jettySize=auto;html=1;exitX=0.5;exitY=1;exitDx=0;exitDy=0;" edge="1" parent="1" source="fQ7oRYGEK4mnszn2L0VB-8">
          <mxGeometry relative="1" as="geometry">
            <mxPoint x="420" y="330" as="targetPoint" />
          </mxGeometry>
        </mxCell>
        <mxCell id="fQ7oRYGEK4mnszn2L0VB-8" value="Embedding" style="rounded=1;whiteSpace=wrap;html=1;fillColor=#60a917;fontColor=#000000;strokeColor=#2D7600;sketch=1;curveFitting=1;jiggle=2;" parent="1" vertex="1">
          <mxGeometry x="360" y="280" width="120" height="40" as="geometry" />
        </mxCell>
        <mxCell id="fQ7oRYGEK4mnszn2L0VB-20" style="edgeStyle=orthogonalEdgeStyle;rounded=1;orthogonalLoop=1;jettySize=auto;html=1;exitX=0.5;exitY=1;exitDx=0;exitDy=0;entryX=0.5;entryY=0;entryDx=0;entryDy=0;fontColor=#000000;sketch=1;curveFitting=1;jiggle=2;" parent="1" source="fQ7oRYGEK4mnszn2L0VB-10" target="fQ7oRYGEK4mnszn2L0VB-12" edge="1">
          <mxGeometry relative="1" as="geometry" />
        </mxCell>
        <mxCell id="fQ7oRYGEK4mnszn2L0VB-10" value="hidden_states" style="rounded=1;whiteSpace=wrap;html=1;fillColor=#e3c800;fontColor=#000000;strokeColor=#B09500;sketch=1;curveFitting=1;jiggle=2;" parent="1" vertex="1">
          <mxGeometry x="360" y="380" width="120" height="40" as="geometry" />
        </mxCell>
        <mxCell id="fQ7oRYGEK4mnszn2L0VB-19" style="edgeStyle=orthogonalEdgeStyle;rounded=1;orthogonalLoop=1;jettySize=auto;html=1;exitX=0.5;exitY=1;exitDx=0;exitDy=0;entryX=0.5;entryY=0;entryDx=0;entryDy=0;fontColor=#000000;sketch=1;curveFitting=1;jiggle=2;" parent="1" source="9S3NViKtjIDBjA28h9UV-11" target="fQ7oRYGEK4mnszn2L0VB-14" edge="1">
          <mxGeometry relative="1" as="geometry" />
        </mxCell>
        <mxCell id="fQ7oRYGEK4mnszn2L0VB-56" style="rounded=1;orthogonalLoop=1;jettySize=auto;html=1;exitX=1;exitY=0;exitDx=0;exitDy=0;entryX=0;entryY=0;entryDx=0;entryDy=0;dashed=1;strokeColor=#00FF00;fontColor=#000000;sketch=1;curveFitting=1;jiggle=2;" parent="1" source="fQ7oRYGEK4mnszn2L0VB-12" target="fQ7oRYGEK4mnszn2L0VB-53" edge="1">
          <mxGeometry relative="1" as="geometry" />
        </mxCell>
        <mxCell id="fQ7oRYGEK4mnszn2L0VB-57" style="rounded=1;orthogonalLoop=1;jettySize=auto;html=1;exitX=1;exitY=1;exitDx=0;exitDy=0;entryX=0;entryY=1;entryDx=0;entryDy=0;dashed=1;strokeColor=#00FF00;fontColor=#000000;sketch=1;curveFitting=1;jiggle=2;" parent="1" source="fQ7oRYGEK4mnszn2L0VB-12" target="fQ7oRYGEK4mnszn2L0VB-53" edge="1">
          <mxGeometry relative="1" as="geometry" />
        </mxCell>
        <mxCell id="fQ7oRYGEK4mnszn2L0VB-12" value="Layers" style="rounded=1;whiteSpace=wrap;html=1;fillColor=#1ba1e2;fontColor=#000000;strokeColor=#006EAF;sketch=1;curveFitting=1;jiggle=2;" parent="1" vertex="1">
          <mxGeometry x="360" y="490" width="120" height="40" as="geometry" />
        </mxCell>
        <mxCell id="fQ7oRYGEK4mnszn2L0VB-29" style="edgeStyle=orthogonalEdgeStyle;rounded=1;orthogonalLoop=1;jettySize=auto;html=1;exitX=0.5;exitY=1;exitDx=0;exitDy=0;entryX=0.5;entryY=0;entryDx=0;entryDy=0;curved=1;fontColor=#000000;sketch=1;curveFitting=1;jiggle=2;" parent="1" source="fQ7oRYGEK4mnszn2L0VB-14" target="fQ7oRYGEK4mnszn2L0VB-28" edge="1">
          <mxGeometry relative="1" as="geometry" />
        </mxCell>
        <mxCell id="fQ7oRYGEK4mnszn2L0VB-39" style="edgeStyle=orthogonalEdgeStyle;rounded=1;orthogonalLoop=1;jettySize=auto;html=1;exitX=0.5;exitY=1;exitDx=0;exitDy=0;entryX=0.5;entryY=0;entryDx=0;entryDy=0;curved=1;fontColor=#000000;sketch=1;curveFitting=1;jiggle=2;" parent="1" source="fQ7oRYGEK4mnszn2L0VB-14" target="fQ7oRYGEK4mnszn2L0VB-34" edge="1">
          <mxGeometry relative="1" as="geometry" />
        </mxCell>
        <mxCell id="fQ7oRYGEK4mnszn2L0VB-14" value="hidden_states" style="rounded=1;whiteSpace=wrap;html=1;fillColor=#e3c800;fontColor=#000000;strokeColor=#B09500;sketch=1;curveFitting=1;jiggle=2;" parent="1" vertex="1">
          <mxGeometry x="360" y="660" width="120" height="40" as="geometry" />
        </mxCell>
        <mxCell id="fQ7oRYGEK4mnszn2L0VB-24" value="&lt;font style=&quot;font-size: 20px;&quot;&gt;Tokenizer&lt;/font&gt;" style="text;html=1;strokeColor=#B20000;fillColor=#e51400;align=center;verticalAlign=middle;whiteSpace=wrap;rounded=1;fontColor=#000000;sketch=1;curveFitting=1;jiggle=2;" parent="1" vertex="1">
          <mxGeometry x="110" y="50" width="160" height="60" as="geometry" />
        </mxCell>
        <mxCell id="fQ7oRYGEK4mnszn2L0VB-25" value="&lt;font style=&quot;font-size: 18px;&quot;&gt;llama Main Model&lt;/font&gt;" style="text;html=1;strokeColor=#B20000;fillColor=#e51400;align=center;verticalAlign=middle;whiteSpace=wrap;rounded=1;fontColor=#000000;sketch=1;curveFitting=1;jiggle=2;" parent="1" vertex="1">
          <mxGeometry x="100" y="430" width="150" height="100" as="geometry" />
        </mxCell>
        <mxCell id="fQ7oRYGEK4mnszn2L0VB-32" style="edgeStyle=orthogonalEdgeStyle;rounded=1;orthogonalLoop=1;jettySize=auto;html=1;exitX=0.5;exitY=1;exitDx=0;exitDy=0;entryX=0.5;entryY=0;entryDx=0;entryDy=0;fontColor=#000000;sketch=1;curveFitting=1;jiggle=2;" parent="1" source="fQ7oRYGEK4mnszn2L0VB-28" target="fQ7oRYGEK4mnszn2L0VB-30" edge="1">
          <mxGeometry relative="1" as="geometry" />
        </mxCell>
        <mxCell id="fQ7oRYGEK4mnszn2L0VB-28" value="nn.Linear" style="rounded=1;whiteSpace=wrap;html=1;fillColor=#60a917;fontColor=#000000;strokeColor=#2D7600;sketch=1;curveFitting=1;jiggle=2;" parent="1" vertex="1">
          <mxGeometry x="160" y="790" width="120" height="40" as="geometry" />
        </mxCell>
        <mxCell id="fQ7oRYGEK4mnszn2L0VB-33" style="edgeStyle=orthogonalEdgeStyle;rounded=1;orthogonalLoop=1;jettySize=auto;html=1;entryX=0.5;entryY=0;entryDx=0;entryDy=0;fontColor=#000000;sketch=1;curveFitting=1;jiggle=2;" parent="1" source="fQ7oRYGEK4mnszn2L0VB-30" target="fQ7oRYGEK4mnszn2L0VB-31" edge="1">
          <mxGeometry relative="1" as="geometry" />
        </mxCell>
        <mxCell id="fQ7oRYGEK4mnszn2L0VB-30" value="Loss Autogression" style="rounded=1;whiteSpace=wrap;html=1;fillColor=#60a917;fontColor=#000000;strokeColor=#2D7600;sketch=1;curveFitting=1;jiggle=2;" parent="1" vertex="1">
          <mxGeometry x="160" y="870" width="120" height="40" as="geometry" />
        </mxCell>
        <mxCell id="fQ7oRYGEK4mnszn2L0VB-31" value="Clm_output" style="rounded=1;whiteSpace=wrap;html=1;fillColor=#e3c800;fontColor=#000000;strokeColor=#B09500;sketch=1;curveFitting=1;jiggle=2;" parent="1" vertex="1">
          <mxGeometry x="160" y="950" width="120" height="40" as="geometry" />
        </mxCell>
        <mxCell id="fQ7oRYGEK4mnszn2L0VB-37" style="edgeStyle=orthogonalEdgeStyle;rounded=1;orthogonalLoop=1;jettySize=auto;html=1;exitX=0.5;exitY=1;exitDx=0;exitDy=0;entryX=0.5;entryY=0;entryDx=0;entryDy=0;fontColor=#000000;sketch=1;curveFitting=1;jiggle=2;" parent="1" source="fQ7oRYGEK4mnszn2L0VB-34" target="fQ7oRYGEK4mnszn2L0VB-35" edge="1">
          <mxGeometry relative="1" as="geometry" />
        </mxCell>
        <mxCell id="fQ7oRYGEK4mnszn2L0VB-34" value="nn.Linear" style="rounded=1;whiteSpace=wrap;html=1;fillColor=#60a917;fontColor=#000000;strokeColor=#2D7600;sketch=1;curveFitting=1;jiggle=2;" parent="1" vertex="1">
          <mxGeometry x="560" y="790" width="120" height="40" as="geometry" />
        </mxCell>
        <mxCell id="fQ7oRYGEK4mnszn2L0VB-38" style="edgeStyle=orthogonalEdgeStyle;rounded=1;orthogonalLoop=1;jettySize=auto;html=1;exitX=0.5;exitY=1;exitDx=0;exitDy=0;entryX=0.5;entryY=0;entryDx=0;entryDy=0;fontColor=#000000;sketch=1;curveFitting=1;jiggle=2;" parent="1" source="fQ7oRYGEK4mnszn2L0VB-35" target="fQ7oRYGEK4mnszn2L0VB-36" edge="1">
          <mxGeometry relative="1" as="geometry" />
        </mxCell>
        <mxCell id="fQ7oRYGEK4mnszn2L0VB-35" value="Cross Entropy Loss" style="rounded=1;whiteSpace=wrap;html=1;fillColor=#60a917;fontColor=#000000;strokeColor=#2D7600;sketch=1;curveFitting=1;jiggle=2;" parent="1" vertex="1">
          <mxGeometry x="560" y="870" width="120" height="40" as="geometry" />
        </mxCell>
        <mxCell id="fQ7oRYGEK4mnszn2L0VB-36" value="Classifier_output" style="rounded=1;whiteSpace=wrap;html=1;fillColor=#e3c800;fontColor=#000000;strokeColor=#B09500;sketch=1;curveFitting=1;jiggle=2;" parent="1" vertex="1">
          <mxGeometry x="560" y="950" width="120" height="40" as="geometry" />
        </mxCell>
        <mxCell id="fQ7oRYGEK4mnszn2L0VB-45" value="&lt;font style=&quot;font-size: 20px;&quot;&gt;LlamaForCLM&lt;/font&gt;" style="text;html=1;strokeColor=#B20000;fillColor=#e51400;align=center;verticalAlign=middle;whiteSpace=wrap;rounded=1;fontColor=#000000;sketch=1;curveFitting=1;jiggle=2;" parent="1" vertex="1">
          <mxGeometry x="110" y="1040" width="220" height="80" as="geometry" />
        </mxCell>
        <mxCell id="fQ7oRYGEK4mnszn2L0VB-46" value="&lt;font style=&quot;font-size: 20px;&quot;&gt;LlamaForClassification&lt;/font&gt;" style="text;html=1;strokeColor=#B20000;fillColor=#e51400;align=center;verticalAlign=middle;whiteSpace=wrap;rounded=1;fontColor=#000000;sketch=1;curveFitting=1;jiggle=2;" parent="1" vertex="1">
          <mxGeometry x="510" y="1040" width="230" height="80" as="geometry" />
        </mxCell>
        <mxCell id="fQ7oRYGEK4mnszn2L0VB-51" style="edgeStyle=orthogonalEdgeStyle;rounded=1;orthogonalLoop=1;jettySize=auto;html=1;exitX=0.5;exitY=1;exitDx=0;exitDy=0;entryX=0.5;entryY=0;entryDx=0;entryDy=0;fontColor=#000000;sketch=1;curveFitting=1;jiggle=2;" parent="1" source="fQ7oRYGEK4mnszn2L0VB-47" target="fQ7oRYGEK4mnszn2L0VB-48" edge="1">
          <mxGeometry relative="1" as="geometry" />
        </mxCell>
        <mxCell id="j0x3B-yfw_-0u4evOHka-2" style="rounded=1;orthogonalLoop=1;jettySize=auto;html=1;exitX=1;exitY=0;exitDx=0;exitDy=0;entryX=0;entryY=0;entryDx=0;entryDy=0;fillColor=#1ba1e2;strokeColor=#006EAF;dashed=1;strokeWidth=2;fontColor=#FFFFFF;sketch=1;curveFitting=1;jiggle=2;" parent="1" source="fQ7oRYGEK4mnszn2L0VB-47" target="j0x3B-yfw_-0u4evOHka-1" edge="1">
          <mxGeometry relative="1" as="geometry" />
        </mxCell>
        <mxCell id="j0x3B-yfw_-0u4evOHka-3" style="rounded=1;orthogonalLoop=1;jettySize=auto;html=1;exitX=1;exitY=0.75;exitDx=0;exitDy=0;entryX=0;entryY=1;entryDx=0;entryDy=0;dashed=1;strokeWidth=2;fillColor=#1ba1e2;strokeColor=#006EAF;fontColor=#FFFFFF;sketch=1;curveFitting=1;jiggle=2;" parent="1" source="fQ7oRYGEK4mnszn2L0VB-47" target="j0x3B-yfw_-0u4evOHka-1" edge="1">
          <mxGeometry relative="1" as="geometry" />
        </mxCell>
        <mxCell id="fQ7oRYGEK4mnszn2L0VB-47" value="layer 1" style="rounded=1;whiteSpace=wrap;html=1;fillColor=#1ba1e2;fontColor=#000000;strokeColor=#006EAF;sketch=1;curveFitting=1;jiggle=2;" parent="1" vertex="1">
          <mxGeometry x="640" y="420" width="80" height="20" as="geometry" />
        </mxCell>
        <mxCell id="fQ7oRYGEK4mnszn2L0VB-52" style="edgeStyle=orthogonalEdgeStyle;rounded=1;orthogonalLoop=1;jettySize=auto;html=1;exitX=0.5;exitY=1;exitDx=0;exitDy=0;fontColor=#000000;sketch=1;curveFitting=1;jiggle=2;" parent="1" source="fQ7oRYGEK4mnszn2L0VB-48" target="fQ7oRYGEK4mnszn2L0VB-49" edge="1">
          <mxGeometry relative="1" as="geometry" />
        </mxCell>
        <mxCell id="fQ7oRYGEK4mnszn2L0VB-48" value="..." style="rounded=1;whiteSpace=wrap;html=1;fillColor=#1ba1e2;fontColor=#000000;strokeColor=#006EAF;sketch=1;curveFitting=1;jiggle=2;" parent="1" vertex="1">
          <mxGeometry x="640" y="480" width="80" height="20" as="geometry" />
        </mxCell>
        <mxCell id="fQ7oRYGEK4mnszn2L0VB-49" value="layer n" style="rounded=1;whiteSpace=wrap;html=1;fillColor=#1ba1e2;fontColor=#000000;strokeColor=#006EAF;sketch=1;curveFitting=1;jiggle=2;" parent="1" vertex="1">
          <mxGeometry x="640" y="600" width="80" height="20" as="geometry" />
        </mxCell>
        <mxCell id="j0x3B-yfw_-0u4evOHka-56" style="rounded=1;orthogonalLoop=1;jettySize=auto;html=1;exitX=1;exitY=0;exitDx=0;exitDy=0;entryX=0;entryY=0;entryDx=0;entryDy=0;dashed=1;strokeWidth=2;fillColor=#fa6800;strokeColor=#C73500;sketch=1;curveFitting=1;jiggle=2;" parent="1" source="fQ7oRYGEK4mnszn2L0VB-61" target="j0x3B-yfw_-0u4evOHka-54" edge="1">
          <mxGeometry relative="1" as="geometry" />
        </mxCell>
        <mxCell id="j0x3B-yfw_-0u4evOHka-57" style="rounded=1;orthogonalLoop=1;jettySize=auto;html=1;exitX=1;exitY=1;exitDx=0;exitDy=0;entryX=0;entryY=1;entryDx=0;entryDy=0;fillColor=#fa6800;strokeColor=#C73500;dashed=1;strokeWidth=2;fontColor=#FFFFFF;sketch=1;curveFitting=1;jiggle=2;" parent="1" source="fQ7oRYGEK4mnszn2L0VB-61" target="j0x3B-yfw_-0u4evOHka-54" edge="1">
          <mxGeometry relative="1" as="geometry" />
        </mxCell>
        <mxCell id="j0x3B-yfw_-0u4evOHka-83" style="rounded=1;orthogonalLoop=1;jettySize=auto;html=1;exitX=1;exitY=0;exitDx=0;exitDy=0;entryX=0;entryY=0;entryDx=0;entryDy=0;fillColor=#6a00ff;strokeColor=#3700CC;dashed=1;strokeWidth=2;fontColor=#FFFFFF;sketch=1;curveFitting=1;jiggle=2;" parent="1" source="fQ7oRYGEK4mnszn2L0VB-96" target="j0x3B-yfw_-0u4evOHka-82" edge="1">
          <mxGeometry relative="1" as="geometry" />
        </mxCell>
        <mxCell id="j0x3B-yfw_-0u4evOHka-84" style="rounded=1;orthogonalLoop=1;jettySize=auto;html=1;exitX=1;exitY=1;exitDx=0;exitDy=0;entryX=0;entryY=1;entryDx=0;entryDy=0;fillColor=#6a00ff;strokeColor=#3700CC;strokeWidth=2;dashed=1;fontColor=#FFFFFF;sketch=1;curveFitting=1;jiggle=2;" parent="1" source="fQ7oRYGEK4mnszn2L0VB-96" target="j0x3B-yfw_-0u4evOHka-82" edge="1">
          <mxGeometry relative="1" as="geometry" />
        </mxCell>
        <mxCell id="j0x3B-yfw_-0u4evOHka-9" style="edgeStyle=orthogonalEdgeStyle;rounded=1;orthogonalLoop=1;jettySize=auto;html=1;exitX=0.5;exitY=1;exitDx=0;exitDy=0;entryX=0.5;entryY=0;entryDx=0;entryDy=0;curved=1;fontColor=#000000;sketch=1;curveFitting=1;jiggle=2;" parent="1" source="j0x3B-yfw_-0u4evOHka-4" target="j0x3B-yfw_-0u4evOHka-6" edge="1">
          <mxGeometry relative="1" as="geometry" />
        </mxCell>
        <mxCell id="j0x3B-yfw_-0u4evOHka-10" style="edgeStyle=orthogonalEdgeStyle;rounded=1;orthogonalLoop=1;jettySize=auto;html=1;exitX=0.5;exitY=1;exitDx=0;exitDy=0;entryX=0.5;entryY=0;entryDx=0;entryDy=0;fontColor=#000000;sketch=1;curveFitting=1;jiggle=2;" parent="1" source="j0x3B-yfw_-0u4evOHka-4" target="j0x3B-yfw_-0u4evOHka-7" edge="1">
          <mxGeometry relative="1" as="geometry" />
        </mxCell>
        <mxCell id="j0x3B-yfw_-0u4evOHka-11" style="edgeStyle=orthogonalEdgeStyle;rounded=1;orthogonalLoop=1;jettySize=auto;html=1;exitX=0.5;exitY=1;exitDx=0;exitDy=0;entryX=0.5;entryY=0;entryDx=0;entryDy=0;curved=1;fontColor=#000000;sketch=1;curveFitting=1;jiggle=2;" parent="1" source="j0x3B-yfw_-0u4evOHka-4" target="j0x3B-yfw_-0u4evOHka-8" edge="1">
          <mxGeometry relative="1" as="geometry" />
        </mxCell>
        <mxCell id="j0x3B-yfw_-0u4evOHka-4" value="hidden_states" style="rounded=1;whiteSpace=wrap;html=1;fillColor=#e3c800;fontColor=#000000;strokeColor=#B09500;sketch=1;curveFitting=1;jiggle=2;" parent="1" vertex="1">
          <mxGeometry x="2380" y="-480" width="80" height="40" as="geometry" />
        </mxCell>
        <mxCell id="j0x3B-yfw_-0u4evOHka-15" style="edgeStyle=orthogonalEdgeStyle;rounded=1;orthogonalLoop=1;jettySize=auto;html=1;exitX=0.5;exitY=1;exitDx=0;exitDy=0;entryX=0.5;entryY=0;entryDx=0;entryDy=0;fontColor=#000000;sketch=1;curveFitting=1;jiggle=2;" parent="1" source="j0x3B-yfw_-0u4evOHka-6" target="j0x3B-yfw_-0u4evOHka-12" edge="1">
          <mxGeometry relative="1" as="geometry" />
        </mxCell>
        <mxCell id="j0x3B-yfw_-0u4evOHka-6" value="nn.Linear" style="rounded=1;whiteSpace=wrap;html=1;fillColor=#60a917;fontColor=#000000;strokeColor=#2D7600;sketch=1;curveFitting=1;jiggle=2;" parent="1" vertex="1">
          <mxGeometry x="2260" y="-360" width="80" height="40" as="geometry" />
        </mxCell>
        <mxCell id="j0x3B-yfw_-0u4evOHka-16" style="edgeStyle=orthogonalEdgeStyle;rounded=1;orthogonalLoop=1;jettySize=auto;html=1;exitX=0.5;exitY=1;exitDx=0;exitDy=0;fontColor=#000000;sketch=1;curveFitting=1;jiggle=2;" parent="1" source="j0x3B-yfw_-0u4evOHka-7" target="j0x3B-yfw_-0u4evOHka-13" edge="1">
          <mxGeometry relative="1" as="geometry" />
        </mxCell>
        <mxCell id="j0x3B-yfw_-0u4evOHka-7" value="nn.Linear" style="rounded=1;whiteSpace=wrap;html=1;fillColor=#60a917;fontColor=#000000;strokeColor=#2D7600;sketch=1;curveFitting=1;jiggle=2;" parent="1" vertex="1">
          <mxGeometry x="2380" y="-360" width="80" height="40" as="geometry" />
        </mxCell>
        <mxCell id="j0x3B-yfw_-0u4evOHka-17" style="edgeStyle=orthogonalEdgeStyle;rounded=1;orthogonalLoop=1;jettySize=auto;html=1;exitX=0.5;exitY=1;exitDx=0;exitDy=0;fontColor=#000000;sketch=1;curveFitting=1;jiggle=2;" parent="1" source="j0x3B-yfw_-0u4evOHka-8" target="j0x3B-yfw_-0u4evOHka-14" edge="1">
          <mxGeometry relative="1" as="geometry" />
        </mxCell>
        <mxCell id="j0x3B-yfw_-0u4evOHka-8" value="nn.Linear" style="rounded=1;whiteSpace=wrap;html=1;fillColor=#60a917;fontColor=#000000;strokeColor=#2D7600;sketch=1;curveFitting=1;jiggle=2;" parent="1" vertex="1">
          <mxGeometry x="2500" y="-360" width="80" height="40" as="geometry" />
        </mxCell>
        <mxCell id="j0x3B-yfw_-0u4evOHka-22" style="edgeStyle=orthogonalEdgeStyle;rounded=1;orthogonalLoop=1;jettySize=auto;html=1;exitX=0.5;exitY=1;exitDx=0;exitDy=0;entryX=0.25;entryY=0;entryDx=0;entryDy=0;curved=1;fontColor=#000000;sketch=1;curveFitting=1;jiggle=2;" parent="1" source="j0x3B-yfw_-0u4evOHka-12" target="j0x3B-yfw_-0u4evOHka-18" edge="1">
          <mxGeometry relative="1" as="geometry" />
        </mxCell>
        <mxCell id="j0x3B-yfw_-0u4evOHka-12" value="query" style="rounded=1;whiteSpace=wrap;html=1;fillColor=#e3c800;fontColor=#000000;strokeColor=#B09500;sketch=1;curveFitting=1;jiggle=2;" parent="1" vertex="1">
          <mxGeometry x="2260" y="-280" width="80" height="40" as="geometry" />
        </mxCell>
        <mxCell id="j0x3B-yfw_-0u4evOHka-21" style="edgeStyle=orthogonalEdgeStyle;rounded=1;orthogonalLoop=1;jettySize=auto;html=1;exitX=0.5;exitY=1;exitDx=0;exitDy=0;entryX=0.75;entryY=0;entryDx=0;entryDy=0;curved=1;fontColor=#000000;sketch=1;curveFitting=1;jiggle=2;" parent="1" source="j0x3B-yfw_-0u4evOHka-13" target="j0x3B-yfw_-0u4evOHka-18" edge="1">
          <mxGeometry relative="1" as="geometry" />
        </mxCell>
        <mxCell id="j0x3B-yfw_-0u4evOHka-13" value="key" style="rounded=1;whiteSpace=wrap;html=1;fillColor=#e3c800;fontColor=#000000;strokeColor=#B09500;sketch=1;curveFitting=1;jiggle=2;" parent="1" vertex="1">
          <mxGeometry x="2380" y="-280" width="80" height="40" as="geometry" />
        </mxCell>
        <mxCell id="j0x3B-yfw_-0u4evOHka-48" style="edgeStyle=orthogonalEdgeStyle;rounded=1;orthogonalLoop=1;jettySize=auto;html=1;exitX=0.5;exitY=1;exitDx=0;exitDy=0;entryX=1;entryY=0.5;entryDx=0;entryDy=0;fontColor=#000000;sketch=1;curveFitting=1;jiggle=2;" parent="1" source="j0x3B-yfw_-0u4evOHka-14" target="j0x3B-yfw_-0u4evOHka-46" edge="1">
          <mxGeometry relative="1" as="geometry" />
        </mxCell>
        <mxCell id="j0x3B-yfw_-0u4evOHka-14" value="value" style="rounded=1;whiteSpace=wrap;html=1;fillColor=#e3c800;fontColor=#000000;strokeColor=#B09500;sketch=1;curveFitting=1;jiggle=2;" parent="1" vertex="1">
          <mxGeometry x="2500" y="-280" width="80" height="40" as="geometry" />
        </mxCell>
        <mxCell id="j0x3B-yfw_-0u4evOHka-23" style="edgeStyle=orthogonalEdgeStyle;rounded=1;orthogonalLoop=1;jettySize=auto;html=1;exitX=0.25;exitY=1;exitDx=0;exitDy=0;entryX=0.5;entryY=0;entryDx=0;entryDy=0;curved=1;fontColor=#000000;sketch=1;curveFitting=1;jiggle=2;" parent="1" source="j0x3B-yfw_-0u4evOHka-18" target="j0x3B-yfw_-0u4evOHka-19" edge="1">
          <mxGeometry relative="1" as="geometry" />
        </mxCell>
        <mxCell id="j0x3B-yfw_-0u4evOHka-24" style="edgeStyle=orthogonalEdgeStyle;rounded=1;orthogonalLoop=1;jettySize=auto;html=1;exitX=0.75;exitY=1;exitDx=0;exitDy=0;entryX=0.5;entryY=0;entryDx=0;entryDy=0;curved=1;fontColor=#000000;sketch=1;curveFitting=1;jiggle=2;" parent="1" source="j0x3B-yfw_-0u4evOHka-18" target="j0x3B-yfw_-0u4evOHka-20" edge="1">
          <mxGeometry relative="1" as="geometry" />
        </mxCell>
        <mxCell id="j0x3B-yfw_-0u4evOHka-18" value="apply_rotary_pos_emb" style="rounded=1;whiteSpace=wrap;html=1;fillColor=#60a917;fontColor=#000000;strokeColor=#2D7600;sketch=1;curveFitting=1;jiggle=2;" parent="1" vertex="1">
          <mxGeometry x="2260" y="-200" width="200" height="40" as="geometry" />
        </mxCell>
        <mxCell id="j0x3B-yfw_-0u4evOHka-26" style="edgeStyle=orthogonalEdgeStyle;rounded=1;orthogonalLoop=1;jettySize=auto;html=1;exitX=0.5;exitY=1;exitDx=0;exitDy=0;entryX=0.5;entryY=0;entryDx=0;entryDy=0;fontColor=#000000;sketch=1;curveFitting=1;jiggle=2;" parent="1" source="j0x3B-yfw_-0u4evOHka-19" target="j0x3B-yfw_-0u4evOHka-25" edge="1">
          <mxGeometry relative="1" as="geometry" />
        </mxCell>
        <mxCell id="j0x3B-yfw_-0u4evOHka-19" value="query" style="rounded=1;whiteSpace=wrap;html=1;fillColor=#e3c800;fontColor=#000000;strokeColor=#B09500;sketch=1;curveFitting=1;jiggle=2;" parent="1" vertex="1">
          <mxGeometry x="2270" y="-120" width="80" height="40" as="geometry" />
        </mxCell>
        <mxCell id="j0x3B-yfw_-0u4evOHka-27" style="edgeStyle=orthogonalEdgeStyle;rounded=1;orthogonalLoop=1;jettySize=auto;html=1;exitX=0.5;exitY=1;exitDx=0;exitDy=0;entryX=0.5;entryY=0;entryDx=0;entryDy=0;fontColor=#000000;sketch=1;curveFitting=1;jiggle=2;" parent="1" source="j0x3B-yfw_-0u4evOHka-20" target="j0x3B-yfw_-0u4evOHka-25" edge="1">
          <mxGeometry relative="1" as="geometry" />
        </mxCell>
        <mxCell id="j0x3B-yfw_-0u4evOHka-20" value="key" style="rounded=1;whiteSpace=wrap;html=1;fillColor=#e3c800;fontColor=#000000;strokeColor=#B09500;sketch=1;curveFitting=1;jiggle=2;" parent="1" vertex="1">
          <mxGeometry x="2370" y="-120" width="80" height="40" as="geometry" />
        </mxCell>
        <mxCell id="j0x3B-yfw_-0u4evOHka-33" style="edgeStyle=orthogonalEdgeStyle;rounded=1;orthogonalLoop=1;jettySize=auto;html=1;exitX=0.5;exitY=1;exitDx=0;exitDy=0;entryX=0.5;entryY=0;entryDx=0;entryDy=0;fontColor=#000000;sketch=1;curveFitting=1;jiggle=2;" parent="1" source="j0x3B-yfw_-0u4evOHka-25" target="j0x3B-yfw_-0u4evOHka-30" edge="1">
          <mxGeometry relative="1" as="geometry" />
        </mxCell>
        <mxCell id="j0x3B-yfw_-0u4evOHka-25" value="scale product" style="rounded=1;whiteSpace=wrap;html=1;fillColor=#60a917;fontColor=#000000;strokeColor=#2D7600;sketch=1;curveFitting=1;jiggle=2;" parent="1" vertex="1">
          <mxGeometry x="2320" y="-40" width="80" height="40" as="geometry" />
        </mxCell>
        <mxCell id="j0x3B-yfw_-0u4evOHka-49" style="edgeStyle=orthogonalEdgeStyle;rounded=1;orthogonalLoop=1;jettySize=auto;html=1;exitX=0.5;exitY=1;exitDx=0;exitDy=0;entryX=0;entryY=0.5;entryDx=0;entryDy=0;fontColor=#000000;sketch=1;curveFitting=1;jiggle=2;" parent="1" source="j0x3B-yfw_-0u4evOHka-28" target="j0x3B-yfw_-0u4evOHka-41" edge="1">
          <mxGeometry relative="1" as="geometry" />
        </mxCell>
        <mxCell id="j0x3B-yfw_-0u4evOHka-28" value="attention_mask" style="rounded=1;whiteSpace=wrap;html=1;fillColor=#e3c800;fontColor=#000000;strokeColor=#B09500;sketch=1;curveFitting=1;jiggle=2;" parent="1" vertex="1">
          <mxGeometry x="2130" y="-480" width="100" height="40" as="geometry" />
        </mxCell>
        <mxCell id="j0x3B-yfw_-0u4evOHka-42" style="edgeStyle=orthogonalEdgeStyle;rounded=1;orthogonalLoop=1;jettySize=auto;html=1;exitX=0.5;exitY=1;exitDx=0;exitDy=0;fontColor=#000000;sketch=1;curveFitting=1;jiggle=2;" parent="1" source="j0x3B-yfw_-0u4evOHka-30" target="j0x3B-yfw_-0u4evOHka-41" edge="1">
          <mxGeometry relative="1" as="geometry" />
        </mxCell>
        <mxCell id="j0x3B-yfw_-0u4evOHka-30" value="attn_weights" style="rounded=1;whiteSpace=wrap;html=1;fillColor=#e3c800;fontColor=#000000;strokeColor=#B09500;sketch=1;curveFitting=1;jiggle=2;" parent="1" vertex="1">
          <mxGeometry x="2310" y="40" width="100" height="40" as="geometry" />
        </mxCell>
        <mxCell id="j0x3B-yfw_-0u4evOHka-47" style="edgeStyle=orthogonalEdgeStyle;rounded=1;orthogonalLoop=1;jettySize=auto;html=1;exitX=0.5;exitY=1;exitDx=0;exitDy=0;entryX=0.5;entryY=0;entryDx=0;entryDy=0;fontColor=#000000;sketch=1;curveFitting=1;jiggle=2;" parent="1" source="j0x3B-yfw_-0u4evOHka-37" target="j0x3B-yfw_-0u4evOHka-46" edge="1">
          <mxGeometry relative="1" as="geometry" />
        </mxCell>
        <mxCell id="j0x3B-yfw_-0u4evOHka-37" value="attn_weights" style="rounded=1;whiteSpace=wrap;html=1;fillColor=#e3c800;fontColor=#000000;strokeColor=#B09500;sketch=1;curveFitting=1;jiggle=2;" parent="1" vertex="1">
          <mxGeometry x="2310" y="280" width="100" height="40" as="geometry" />
        </mxCell>
        <mxCell id="j0x3B-yfw_-0u4evOHka-45" style="edgeStyle=orthogonalEdgeStyle;rounded=1;orthogonalLoop=1;jettySize=auto;html=1;exitX=0.5;exitY=1;exitDx=0;exitDy=0;fontColor=#000000;sketch=1;curveFitting=1;jiggle=2;" parent="1" source="j0x3B-yfw_-0u4evOHka-38" target="j0x3B-yfw_-0u4evOHka-37" edge="1">
          <mxGeometry relative="1" as="geometry" />
        </mxCell>
        <mxCell id="j0x3B-yfw_-0u4evOHka-38" value="softmax" style="rounded=1;whiteSpace=wrap;html=1;fillColor=#60a917;fontColor=#000000;strokeColor=#2D7600;sketch=1;curveFitting=1;jiggle=2;" parent="1" vertex="1">
          <mxGeometry x="2320" y="200" width="80" height="40" as="geometry" />
        </mxCell>
        <mxCell id="j0x3B-yfw_-0u4evOHka-44" style="edgeStyle=orthogonalEdgeStyle;rounded=1;orthogonalLoop=1;jettySize=auto;html=1;exitX=0.5;exitY=1;exitDx=0;exitDy=0;fontColor=#000000;sketch=1;curveFitting=1;jiggle=2;" parent="1" source="j0x3B-yfw_-0u4evOHka-41" target="j0x3B-yfw_-0u4evOHka-38" edge="1">
          <mxGeometry relative="1" as="geometry" />
        </mxCell>
        <mxCell id="j0x3B-yfw_-0u4evOHka-41" value="+" style="ellipse;whiteSpace=wrap;html=1;aspect=fixed;fillColor=#60a917;fontColor=#000000;strokeColor=#2D7600;rounded=1;sketch=1;curveFitting=1;jiggle=2;" parent="1" vertex="1">
          <mxGeometry x="2340" y="120" width="40" height="40" as="geometry" />
        </mxCell>
        <mxCell id="j0x3B-yfw_-0u4evOHka-51" style="edgeStyle=orthogonalEdgeStyle;rounded=1;orthogonalLoop=1;jettySize=auto;html=1;exitX=0.5;exitY=1;exitDx=0;exitDy=0;fontColor=#000000;sketch=1;curveFitting=1;jiggle=2;" parent="1" source="j0x3B-yfw_-0u4evOHka-46" target="j0x3B-yfw_-0u4evOHka-50" edge="1">
          <mxGeometry relative="1" as="geometry" />
        </mxCell>
        <mxCell id="j0x3B-yfw_-0u4evOHka-46" value="MatMul" style="rounded=1;whiteSpace=wrap;html=1;fillColor=#60a917;fontColor=#000000;strokeColor=#2D7600;sketch=1;curveFitting=1;jiggle=2;" parent="1" vertex="1">
          <mxGeometry x="2320" y="360" width="80" height="40" as="geometry" />
        </mxCell>
        <mxCell id="j0x3B-yfw_-0u4evOHka-53" style="edgeStyle=orthogonalEdgeStyle;rounded=1;orthogonalLoop=1;jettySize=auto;html=1;exitX=0.5;exitY=1;exitDx=0;exitDy=0;entryX=0.5;entryY=0;entryDx=0;entryDy=0;fontColor=#000000;sketch=1;curveFitting=1;jiggle=2;" parent="1" source="j0x3B-yfw_-0u4evOHka-50" target="j0x3B-yfw_-0u4evOHka-52" edge="1">
          <mxGeometry relative="1" as="geometry" />
        </mxCell>
        <mxCell id="j0x3B-yfw_-0u4evOHka-50" value="reshape/transpose" style="rounded=1;whiteSpace=wrap;html=1;fillColor=#60a917;fontColor=#000000;strokeColor=#2D7600;sketch=1;curveFitting=1;jiggle=2;" parent="1" vertex="1">
          <mxGeometry x="2320" y="440" width="80" height="40" as="geometry" />
        </mxCell>
        <mxCell id="j0x3B-yfw_-0u4evOHka-52" value="attn_output" style="rounded=1;whiteSpace=wrap;html=1;fillColor=#e3c800;fontColor=#000000;strokeColor=#B09500;sketch=1;curveFitting=1;jiggle=2;" parent="1" vertex="1">
          <mxGeometry x="2310" y="520" width="100" height="40" as="geometry" />
        </mxCell>
        <mxCell id="j0x3B-yfw_-0u4evOHka-58" value="&lt;font style=&quot;font-size: 22px;&quot;&gt;&lt;font style=&quot;font-size: 22px;&quot;&gt;LLama&lt;/font&gt; Attention&lt;/font&gt;" style="text;html=1;align=center;verticalAlign=middle;resizable=0;points=[];autosize=1;strokeColor=#B20000;fillColor=#e51400;fontColor=#000000;rounded=1;sketch=1;curveFitting=1;jiggle=2;fontSize=22;" parent="1" vertex="1">
          <mxGeometry x="2050" y="-565" width="180" height="40" as="geometry" />
        </mxCell>
        <mxCell id="j0x3B-yfw_-0u4evOHka-66" style="edgeStyle=orthogonalEdgeStyle;rounded=1;orthogonalLoop=1;jettySize=auto;html=1;exitX=0.5;exitY=1;exitDx=0;exitDy=0;entryX=0.5;entryY=0;entryDx=0;entryDy=0;fontColor=#000000;sketch=1;curveFitting=1;jiggle=2;" parent="1" source="j0x3B-yfw_-0u4evOHka-63" target="j0x3B-yfw_-0u4evOHka-65" edge="1">
          <mxGeometry relative="1" as="geometry" />
        </mxCell>
        <mxCell id="j0x3B-yfw_-0u4evOHka-72" style="edgeStyle=orthogonalEdgeStyle;rounded=1;orthogonalLoop=1;jettySize=auto;html=1;exitX=0.5;exitY=1;exitDx=0;exitDy=0;entryX=0.5;entryY=0;entryDx=0;entryDy=0;fontColor=#000000;sketch=1;curveFitting=1;jiggle=2;" parent="1" source="j0x3B-yfw_-0u4evOHka-63" target="j0x3B-yfw_-0u4evOHka-71" edge="1">
          <mxGeometry relative="1" as="geometry" />
        </mxCell>
        <mxCell id="j0x3B-yfw_-0u4evOHka-63" value="x" style="rounded=1;whiteSpace=wrap;html=1;fillColor=#e3c800;fontColor=#000000;strokeColor=#B09500;sketch=1;curveFitting=1;jiggle=2;" parent="1" vertex="1">
          <mxGeometry x="2220" y="830" width="120" height="40" as="geometry" />
        </mxCell>
        <mxCell id="j0x3B-yfw_-0u4evOHka-69" style="edgeStyle=orthogonalEdgeStyle;rounded=1;orthogonalLoop=1;jettySize=auto;html=1;exitX=0.5;exitY=1;exitDx=0;exitDy=0;entryX=0.5;entryY=0;entryDx=0;entryDy=0;fontColor=#000000;sketch=1;curveFitting=1;jiggle=2;" parent="1" source="j0x3B-yfw_-0u4evOHka-65" target="j0x3B-yfw_-0u4evOHka-67" edge="1">
          <mxGeometry relative="1" as="geometry" />
        </mxCell>
        <mxCell id="j0x3B-yfw_-0u4evOHka-65" value="nn.Linear" style="rounded=1;whiteSpace=wrap;html=1;fillColor=#60a917;fontColor=#000000;strokeColor=#2D7600;sketch=1;curveFitting=1;jiggle=2;" parent="1" vertex="1">
          <mxGeometry x="2100" y="910" width="120" height="40" as="geometry" />
        </mxCell>
        <mxCell id="j0x3B-yfw_-0u4evOHka-70" style="edgeStyle=orthogonalEdgeStyle;rounded=1;orthogonalLoop=1;jettySize=auto;html=1;exitX=0.5;exitY=1;exitDx=0;exitDy=0;entryX=0.5;entryY=0;entryDx=0;entryDy=0;fontColor=#000000;sketch=1;curveFitting=1;jiggle=2;" parent="1" source="j0x3B-yfw_-0u4evOHka-67" target="j0x3B-yfw_-0u4evOHka-68" edge="1">
          <mxGeometry relative="1" as="geometry" />
        </mxCell>
        <mxCell id="j0x3B-yfw_-0u4evOHka-67" value="gate_proj_output" style="rounded=1;whiteSpace=wrap;html=1;fillColor=#e3c800;fontColor=#000000;strokeColor=#B09500;sketch=1;curveFitting=1;jiggle=2;" parent="1" vertex="1">
          <mxGeometry x="2100" y="990" width="120" height="40" as="geometry" />
        </mxCell>
        <mxCell id="j0x3B-yfw_-0u4evOHka-76" style="edgeStyle=orthogonalEdgeStyle;rounded=1;orthogonalLoop=1;jettySize=auto;html=1;exitX=0.5;exitY=1;exitDx=0;exitDy=0;entryX=0.5;entryY=0;entryDx=0;entryDy=0;fontColor=#000000;sketch=1;curveFitting=1;jiggle=2;" parent="1" source="j0x3B-yfw_-0u4evOHka-68" edge="1">
          <mxGeometry relative="1" as="geometry">
            <mxPoint x="2280" y="1180" as="targetPoint" />
          </mxGeometry>
        </mxCell>
        <mxCell id="j0x3B-yfw_-0u4evOHka-68" value="act_fn" style="rounded=1;whiteSpace=wrap;html=1;fillColor=#60a917;fontColor=#000000;strokeColor=#2D7600;sketch=1;curveFitting=1;jiggle=2;" parent="1" vertex="1">
          <mxGeometry x="2100" y="1070" width="120" height="40" as="geometry" />
        </mxCell>
        <mxCell id="j0x3B-yfw_-0u4evOHka-74" style="edgeStyle=orthogonalEdgeStyle;rounded=1;orthogonalLoop=1;jettySize=auto;html=1;exitX=0.5;exitY=1;exitDx=0;exitDy=0;entryX=0.5;entryY=0;entryDx=0;entryDy=0;fontColor=#000000;sketch=1;curveFitting=1;jiggle=2;" parent="1" source="j0x3B-yfw_-0u4evOHka-71" target="j0x3B-yfw_-0u4evOHka-73" edge="1">
          <mxGeometry relative="1" as="geometry" />
        </mxCell>
        <mxCell id="j0x3B-yfw_-0u4evOHka-71" value="nn.Linear" style="rounded=1;whiteSpace=wrap;html=1;fillColor=#60a917;fontColor=#000000;strokeColor=#2D7600;sketch=1;curveFitting=1;jiggle=2;" parent="1" vertex="1">
          <mxGeometry x="2340" y="910" width="120" height="40" as="geometry" />
        </mxCell>
        <mxCell id="j0x3B-yfw_-0u4evOHka-77" style="edgeStyle=orthogonalEdgeStyle;rounded=1;orthogonalLoop=1;jettySize=auto;html=1;exitX=0.5;exitY=1;exitDx=0;exitDy=0;entryX=0.75;entryY=0;entryDx=0;entryDy=0;fontColor=#000000;sketch=1;curveFitting=1;jiggle=2;" parent="1" source="j0x3B-yfw_-0u4evOHka-73" edge="1">
          <mxGeometry relative="1" as="geometry">
            <mxPoint x="2310" y="1180" as="targetPoint" />
          </mxGeometry>
        </mxCell>
        <mxCell id="j0x3B-yfw_-0u4evOHka-73" value="up_proj_output" style="rounded=1;whiteSpace=wrap;html=1;fillColor=#e3c800;fontColor=#000000;strokeColor=#B09500;sketch=1;curveFitting=1;jiggle=2;" parent="1" vertex="1">
          <mxGeometry x="2340" y="990" width="120" height="40" as="geometry" />
        </mxCell>
        <mxCell id="j0x3B-yfw_-0u4evOHka-81" style="edgeStyle=orthogonalEdgeStyle;rounded=1;orthogonalLoop=1;jettySize=auto;html=1;exitX=0.5;exitY=1;exitDx=0;exitDy=0;fontColor=#000000;sketch=1;curveFitting=1;jiggle=2;" parent="1" source="j0x3B-yfw_-0u4evOHka-78" target="j0x3B-yfw_-0u4evOHka-80" edge="1">
          <mxGeometry relative="1" as="geometry" />
        </mxCell>
        <mxCell id="j0x3B-yfw_-0u4evOHka-78" value="nn.Linear" style="rounded=1;whiteSpace=wrap;html=1;fillColor=#60a917;fontColor=#000000;strokeColor=#2D7600;sketch=1;curveFitting=1;jiggle=2;" parent="1" vertex="1">
          <mxGeometry x="2250" y="1280" width="120" height="50" as="geometry" />
        </mxCell>
        <mxCell id="j0x3B-yfw_-0u4evOHka-80" value="down_proj_output" style="rounded=1;whiteSpace=wrap;html=1;fillColor=#e3c800;fontColor=#000000;strokeColor=#B09500;sketch=1;curveFitting=1;jiggle=2;" parent="1" vertex="1">
          <mxGeometry x="2250" y="1390" width="120" height="40" as="geometry" />
        </mxCell>
        <mxCell id="j0x3B-yfw_-0u4evOHka-85" value="&lt;font style=&quot;font-size: 22px;&quot;&gt;Llama MLP&lt;/font&gt;" style="text;html=1;align=center;verticalAlign=middle;resizable=0;points=[];autosize=1;strokeColor=#B20000;fillColor=#e51400;fontColor=#000000;rounded=1;sketch=1;curveFitting=1;jiggle=2;" parent="1" vertex="1">
          <mxGeometry x="2070" y="720" width="130" height="40" as="geometry" />
        </mxCell>
        <mxCell id="j0x3B-yfw_-0u4evOHka-1" value="" style="rounded=1;whiteSpace=wrap;html=1;fillColor=none;strokeColor=#006EAF;fontColor=#000000;dashed=1;strokeWidth=2;sketch=1;curveFitting=1;jiggle=2;" parent="1" vertex="1">
          <mxGeometry x="1125" y="270" width="380" height="930" as="geometry" />
        </mxCell>
        <mxCell id="fQ7oRYGEK4mnszn2L0VB-90" style="edgeStyle=orthogonalEdgeStyle;rounded=1;orthogonalLoop=1;jettySize=auto;html=1;exitX=0.5;exitY=1;exitDx=0;exitDy=0;entryX=0.5;entryY=0;entryDx=0;entryDy=0;fontColor=#000000;sketch=1;curveFitting=1;jiggle=2;" parent="1" source="fQ7oRYGEK4mnszn2L0VB-60" target="fQ7oRYGEK4mnszn2L0VB-61" edge="1">
          <mxGeometry relative="1" as="geometry" />
        </mxCell>
        <mxCell id="fQ7oRYGEK4mnszn2L0VB-60" value="norm" style="ellipse;whiteSpace=wrap;html=1;aspect=fixed;fillColor=#60a917;fontColor=#000000;strokeColor=#2D7600;rounded=1;sketch=1;curveFitting=1;jiggle=2;" parent="1" vertex="1">
          <mxGeometry x="1195" y="400" width="40" height="40" as="geometry" />
        </mxCell>
        <mxCell id="fQ7oRYGEK4mnszn2L0VB-85" style="edgeStyle=orthogonalEdgeStyle;rounded=1;orthogonalLoop=1;jettySize=auto;html=1;exitX=0.5;exitY=1;exitDx=0;exitDy=0;entryX=0.5;entryY=0;entryDx=0;entryDy=0;fontColor=#000000;sketch=1;curveFitting=1;jiggle=2;" parent="1" source="fQ7oRYGEK4mnszn2L0VB-61" target="fQ7oRYGEK4mnszn2L0VB-63" edge="1">
          <mxGeometry relative="1" as="geometry" />
        </mxCell>
        <mxCell id="fQ7oRYGEK4mnszn2L0VB-61" value="Attention" style="rounded=1;whiteSpace=wrap;html=1;fillColor=#fa6800;strokeColor=#C73500;fontColor=#000000;sketch=1;curveFitting=1;jiggle=2;" parent="1" vertex="1">
          <mxGeometry x="1155" y="480" width="120" height="40" as="geometry" />
        </mxCell>
        <mxCell id="fQ7oRYGEK4mnszn2L0VB-64" style="edgeStyle=orthogonalEdgeStyle;rounded=1;orthogonalLoop=1;jettySize=auto;html=1;exitX=0.5;exitY=1;exitDx=0;exitDy=0;entryX=0.5;entryY=0;entryDx=0;entryDy=0;fontColor=#000000;sketch=1;curveFitting=1;jiggle=2;" parent="1" source="fQ7oRYGEK4mnszn2L0VB-62" target="fQ7oRYGEK4mnszn2L0VB-60" edge="1">
          <mxGeometry relative="1" as="geometry" />
        </mxCell>
        <mxCell id="fQ7oRYGEK4mnszn2L0VB-88" style="edgeStyle=orthogonalEdgeStyle;rounded=1;orthogonalLoop=1;jettySize=auto;html=1;exitX=1;exitY=0.5;exitDx=0;exitDy=0;entryX=0;entryY=0.5;entryDx=0;entryDy=0;fontColor=#000000;sketch=1;curveFitting=1;jiggle=2;" parent="1" source="fQ7oRYGEK4mnszn2L0VB-62" target="fQ7oRYGEK4mnszn2L0VB-75" edge="1">
          <mxGeometry relative="1" as="geometry" />
        </mxCell>
        <mxCell id="fQ7oRYGEK4mnszn2L0VB-106" value="copy" style="edgeLabel;html=1;align=center;verticalAlign=middle;resizable=0;points=[];rounded=1;fontColor=#000000;sketch=1;curveFitting=1;jiggle=2;" parent="fQ7oRYGEK4mnszn2L0VB-88" vertex="1" connectable="0">
          <mxGeometry x="-0.0208" y="2" relative="1" as="geometry">
            <mxPoint as="offset" />
          </mxGeometry>
        </mxCell>
        <mxCell id="fQ7oRYGEK4mnszn2L0VB-62" value="hidden_states" style="rounded=1;whiteSpace=wrap;html=1;fillColor=#e3c800;fontColor=#000000;strokeColor=#B09500;sketch=1;curveFitting=1;jiggle=2;" parent="1" vertex="1">
          <mxGeometry x="1155" y="320" width="120" height="40" as="geometry" />
        </mxCell>
        <mxCell id="fQ7oRYGEK4mnszn2L0VB-79" style="edgeStyle=orthogonalEdgeStyle;rounded=1;orthogonalLoop=1;jettySize=auto;html=1;exitX=0.5;exitY=1;exitDx=0;exitDy=0;entryX=0.5;entryY=0;entryDx=0;entryDy=0;fontColor=#000000;sketch=1;curveFitting=1;jiggle=2;" parent="1" source="fQ7oRYGEK4mnszn2L0VB-63" target="fQ7oRYGEK4mnszn2L0VB-78" edge="1">
          <mxGeometry relative="1" as="geometry" />
        </mxCell>
        <mxCell id="fQ7oRYGEK4mnszn2L0VB-63" value="hidden_states" style="rounded=1;whiteSpace=wrap;html=1;fillColor=#e3c800;fontColor=#000000;strokeColor=#B09500;sketch=1;curveFitting=1;jiggle=2;" parent="1" vertex="1">
          <mxGeometry x="1155" y="560" width="120" height="40" as="geometry" />
        </mxCell>
        <mxCell id="fQ7oRYGEK4mnszn2L0VB-89" style="edgeStyle=orthogonalEdgeStyle;rounded=1;orthogonalLoop=1;jettySize=auto;html=1;exitX=0.5;exitY=1;exitDx=0;exitDy=0;entryX=1;entryY=0.5;entryDx=0;entryDy=0;fontColor=#000000;sketch=1;curveFitting=1;jiggle=2;" parent="1" source="fQ7oRYGEK4mnszn2L0VB-75" target="fQ7oRYGEK4mnszn2L0VB-78" edge="1">
          <mxGeometry relative="1" as="geometry" />
        </mxCell>
        <mxCell id="fQ7oRYGEK4mnszn2L0VB-75" value="residual" style="rounded=1;whiteSpace=wrap;html=1;fillColor=#e3c800;fontColor=#000000;strokeColor=#B09500;sketch=1;curveFitting=1;jiggle=2;" parent="1" vertex="1">
          <mxGeometry x="1355" y="320" width="120" height="40" as="geometry" />
        </mxCell>
        <mxCell id="fQ7oRYGEK4mnszn2L0VB-92" style="edgeStyle=orthogonalEdgeStyle;rounded=1;orthogonalLoop=1;jettySize=auto;html=1;exitX=1;exitY=0.5;exitDx=0;exitDy=0;entryX=0;entryY=0.5;entryDx=0;entryDy=0;fontColor=#000000;sketch=1;curveFitting=1;jiggle=2;" parent="1" source="fQ7oRYGEK4mnszn2L0VB-77" target="fQ7oRYGEK4mnszn2L0VB-91" edge="1">
          <mxGeometry relative="1" as="geometry" />
        </mxCell>
        <mxCell id="fQ7oRYGEK4mnszn2L0VB-105" value="copy" style="edgeLabel;html=1;align=center;verticalAlign=middle;resizable=0;points=[];rounded=1;fontColor=#000000;sketch=1;curveFitting=1;jiggle=2;" parent="fQ7oRYGEK4mnszn2L0VB-92" vertex="1" connectable="0">
          <mxGeometry x="-0.0208" y="3" relative="1" as="geometry">
            <mxPoint as="offset" />
          </mxGeometry>
        </mxCell>
        <mxCell id="fQ7oRYGEK4mnszn2L0VB-97" style="edgeStyle=orthogonalEdgeStyle;rounded=1;orthogonalLoop=1;jettySize=auto;html=1;exitX=0.5;exitY=1;exitDx=0;exitDy=0;entryX=0.5;entryY=0;entryDx=0;entryDy=0;fontColor=#000000;sketch=1;curveFitting=1;jiggle=2;" parent="1" source="fQ7oRYGEK4mnszn2L0VB-77" target="fQ7oRYGEK4mnszn2L0VB-95" edge="1">
          <mxGeometry relative="1" as="geometry" />
        </mxCell>
        <mxCell id="fQ7oRYGEK4mnszn2L0VB-77" value="hidden_states" style="rounded=1;whiteSpace=wrap;html=1;fillColor=#e3c800;fontColor=#000000;strokeColor=#B09500;sketch=1;curveFitting=1;jiggle=2;" parent="1" vertex="1">
          <mxGeometry x="1155" y="720" width="120" height="40" as="geometry" />
        </mxCell>
        <mxCell id="fQ7oRYGEK4mnszn2L0VB-81" style="edgeStyle=orthogonalEdgeStyle;rounded=1;orthogonalLoop=1;jettySize=auto;html=1;exitX=0.5;exitY=1;exitDx=0;exitDy=0;entryX=0.5;entryY=0;entryDx=0;entryDy=0;fontColor=#000000;sketch=1;curveFitting=1;jiggle=2;" parent="1" source="fQ7oRYGEK4mnszn2L0VB-78" target="fQ7oRYGEK4mnszn2L0VB-77" edge="1">
          <mxGeometry relative="1" as="geometry" />
        </mxCell>
        <mxCell id="fQ7oRYGEK4mnszn2L0VB-78" value="+" style="ellipse;whiteSpace=wrap;html=1;aspect=fixed;fillColor=#60a917;fontColor=#000000;strokeColor=#2D7600;rounded=1;sketch=1;curveFitting=1;jiggle=2;" parent="1" vertex="1">
          <mxGeometry x="1195" y="640" width="40" height="40" as="geometry" />
        </mxCell>
        <mxCell id="fQ7oRYGEK4mnszn2L0VB-102" style="edgeStyle=orthogonalEdgeStyle;rounded=1;orthogonalLoop=1;jettySize=auto;html=1;exitX=0.5;exitY=1;exitDx=0;exitDy=0;entryX=1;entryY=0.5;entryDx=0;entryDy=0;fontColor=#000000;sketch=1;curveFitting=1;jiggle=2;" parent="1" source="fQ7oRYGEK4mnszn2L0VB-91" target="fQ7oRYGEK4mnszn2L0VB-100" edge="1">
          <mxGeometry relative="1" as="geometry" />
        </mxCell>
        <mxCell id="fQ7oRYGEK4mnszn2L0VB-91" value="residual" style="rounded=1;whiteSpace=wrap;html=1;fillColor=#e3c800;fontColor=#000000;strokeColor=#B09500;sketch=1;curveFitting=1;jiggle=2;" parent="1" vertex="1">
          <mxGeometry x="1355" y="720" width="120" height="40" as="geometry" />
        </mxCell>
        <mxCell id="fQ7oRYGEK4mnszn2L0VB-94" style="edgeStyle=orthogonalEdgeStyle;rounded=1;orthogonalLoop=1;jettySize=auto;html=1;exitX=0.5;exitY=1;exitDx=0;exitDy=0;entryX=0.5;entryY=0;entryDx=0;entryDy=0;fontColor=#000000;sketch=1;curveFitting=1;jiggle=2;" parent="1" source="fQ7oRYGEK4mnszn2L0VB-95" target="fQ7oRYGEK4mnszn2L0VB-96" edge="1">
          <mxGeometry relative="1" as="geometry" />
        </mxCell>
        <mxCell id="fQ7oRYGEK4mnszn2L0VB-95" value="norm" style="ellipse;whiteSpace=wrap;html=1;aspect=fixed;fillColor=#60a917;fontColor=#000000;strokeColor=#2D7600;rounded=1;sketch=1;curveFitting=1;jiggle=2;" parent="1" vertex="1">
          <mxGeometry x="1195" y="800" width="40" height="40" as="geometry" />
        </mxCell>
        <mxCell id="fQ7oRYGEK4mnszn2L0VB-99" style="edgeStyle=orthogonalEdgeStyle;rounded=1;orthogonalLoop=1;jettySize=auto;html=1;exitX=0.5;exitY=1;exitDx=0;exitDy=0;entryX=0.5;entryY=0;entryDx=0;entryDy=0;fontColor=#000000;sketch=1;curveFitting=1;jiggle=2;" parent="1" source="fQ7oRYGEK4mnszn2L0VB-96" target="fQ7oRYGEK4mnszn2L0VB-98" edge="1">
          <mxGeometry relative="1" as="geometry" />
        </mxCell>
        <mxCell id="fQ7oRYGEK4mnszn2L0VB-96" value="&lt;font&gt;MLP&lt;/font&gt;" style="rounded=1;whiteSpace=wrap;html=1;fillColor=#6a00ff;strokeColor=#3700CC;fontColor=#000000;sketch=1;curveFitting=1;jiggle=2;" parent="1" vertex="1">
          <mxGeometry x="1155" y="880" width="120" height="40" as="geometry" />
        </mxCell>
        <mxCell id="fQ7oRYGEK4mnszn2L0VB-101" style="edgeStyle=orthogonalEdgeStyle;rounded=1;orthogonalLoop=1;jettySize=auto;html=1;exitX=0.5;exitY=1;exitDx=0;exitDy=0;fontColor=#000000;sketch=1;curveFitting=1;jiggle=2;" parent="1" source="fQ7oRYGEK4mnszn2L0VB-98" target="fQ7oRYGEK4mnszn2L0VB-100" edge="1">
          <mxGeometry relative="1" as="geometry" />
        </mxCell>
        <mxCell id="fQ7oRYGEK4mnszn2L0VB-98" value="hidden_states" style="rounded=1;whiteSpace=wrap;html=1;fillColor=#e3c800;fontColor=#000000;strokeColor=#B09500;sketch=1;curveFitting=1;jiggle=2;" parent="1" vertex="1">
          <mxGeometry x="1155" y="960" width="120" height="40" as="geometry" />
        </mxCell>
        <mxCell id="fQ7oRYGEK4mnszn2L0VB-104" style="edgeStyle=orthogonalEdgeStyle;rounded=1;orthogonalLoop=1;jettySize=auto;html=1;exitX=0.5;exitY=1;exitDx=0;exitDy=0;entryX=0.5;entryY=0;entryDx=0;entryDy=0;fontColor=#000000;sketch=1;curveFitting=1;jiggle=2;" parent="1" source="fQ7oRYGEK4mnszn2L0VB-100" target="fQ7oRYGEK4mnszn2L0VB-103" edge="1">
          <mxGeometry relative="1" as="geometry" />
        </mxCell>
        <mxCell id="fQ7oRYGEK4mnszn2L0VB-100" value="+" style="ellipse;whiteSpace=wrap;html=1;aspect=fixed;fillColor=#60a917;fontColor=#000000;strokeColor=#2D7600;rounded=1;sketch=1;curveFitting=1;jiggle=2;" parent="1" vertex="1">
          <mxGeometry x="1195" y="1040" width="40" height="40" as="geometry" />
        </mxCell>
        <mxCell id="fQ7oRYGEK4mnszn2L0VB-103" value="hidden_states" style="rounded=1;whiteSpace=wrap;html=1;fillColor=#e3c800;fontColor=#000000;strokeColor=#B09500;sketch=1;curveFitting=1;jiggle=2;" parent="1" vertex="1">
          <mxGeometry x="1155" y="1120" width="120" height="40" as="geometry" />
        </mxCell>
        <mxCell id="j0x3B-yfw_-0u4evOHka-5" value="&lt;p style=&quot;line-height: 20%;&quot;&gt;&lt;font style=&quot;font-size: 20px;&quot;&gt;Llama Decoding Layer&lt;/font&gt;&lt;/p&gt;" style="text;html=1;align=center;verticalAlign=middle;resizable=0;points=[];autosize=1;strokeColor=#B20000;fillColor=#e51400;fontColor=#000000;rounded=1;sketch=1;curveFitting=1;jiggle=2;arcSize=0;" parent="1" vertex="1">
          <mxGeometry x="1125" y="200" width="220" height="40" as="geometry" />
        </mxCell>
        <mxCell id="9S3NViKtjIDBjA28h9UV-9" style="edgeStyle=orthogonalEdgeStyle;rounded=0;orthogonalLoop=1;jettySize=auto;html=1;" edge="1" parent="1" source="9S3NViKtjIDBjA28h9UV-7" target="j0x3B-yfw_-0u4evOHka-78">
          <mxGeometry relative="1" as="geometry" />
        </mxCell>
        <mxCell id="9S3NViKtjIDBjA28h9UV-7" value="x" style="ellipse;whiteSpace=wrap;html=1;aspect=fixed;fillColor=#60a917;fontColor=#000000;strokeColor=#2D7600;rounded=1;sketch=1;curveFitting=1;jiggle=2;" vertex="1" parent="1">
          <mxGeometry x="2270" y="1180" width="60" height="60" as="geometry" />
        </mxCell>
        <mxCell id="9S3NViKtjIDBjA28h9UV-12" value="" style="edgeStyle=orthogonalEdgeStyle;rounded=1;orthogonalLoop=1;jettySize=auto;html=1;exitX=0.5;exitY=1;exitDx=0;exitDy=0;entryX=0.5;entryY=0;entryDx=0;entryDy=0;fontColor=#000000;sketch=1;curveFitting=1;jiggle=2;" edge="1" parent="1" source="fQ7oRYGEK4mnszn2L0VB-12" target="9S3NViKtjIDBjA28h9UV-11">
          <mxGeometry relative="1" as="geometry">
            <mxPoint x="420" y="560" as="sourcePoint" />
            <mxPoint x="420" y="640" as="targetPoint" />
          </mxGeometry>
        </mxCell>
        <mxCell id="9S3NViKtjIDBjA28h9UV-11" value="RSM&amp;nbsp;&lt;div&gt;norm&lt;/div&gt;" style="ellipse;whiteSpace=wrap;html=1;aspect=fixed;fillColor=#60a917;fontColor=#000000;strokeColor=#2D7600;rounded=1;sketch=1;curveFitting=1;jiggle=2;" vertex="1" parent="1">
          <mxGeometry x="395" y="570" width="50" height="50" as="geometry" />
        </mxCell>
      </root>
    </mxGraphModel>
  </diagram>
</mxfile>
